<svg width="98" height="98" viewBox="0 0 98 98" fill="none" xmlns="http://www.w3.org/2000/svg">
<rect width="98" height="98" rx="49" fill="url(#paint0_linear_53_623)" fill-opacity="0.05"/>
<rect x="12" y="12" width="74" height="74" rx="37" fill="url(#paint1_linear_53_623)" fill-opacity="0.1"/>
<rect x="12.5" y="12.5" width="73" height="73" rx="36.5" stroke="url(#paint2_linear_53_623)" stroke-opacity="0.2"/>
<path fill-rule="evenodd" clip-rule="evenodd" d="M42.4375 39.25C42.4375 36.9028 44.3403 35 46.6875 35H50.9375C53.2847 35 55.1875 36.9028 55.1875 39.25V39.5404C56.5085 39.6613 57.8188 39.8194 59.1174 40.0137C61.1773 40.322 62.625 42.114 62.625 44.1456V48.4426C62.625 50.1584 61.5857 51.7751 59.8819 52.3415C56.401 53.4988 52.6788 54.125 48.8126 54.125C44.9462 54.125 41.224 53.4988 37.743 52.3415C36.0393 51.7751 35 50.1583 35 48.4426V44.1456C35 42.114 36.4477 40.322 38.5076 40.0138C39.8062 39.8194 41.1165 39.6613 42.4375 39.5404V39.25ZM53.0625 39.25V39.3787C51.6567 39.2933 50.2396 39.25 48.8125 39.25C47.3854 39.25 45.9683 39.2933 44.5625 39.3787V39.25C44.5625 38.0764 45.5139 37.125 46.6875 37.125H50.9375C52.1111 37.125 53.0625 38.0764 53.0625 39.25ZM48.8125 50.9375C49.3993 50.9375 49.875 50.4618 49.875 49.875C49.875 49.2882 49.3993 48.8125 48.8125 48.8125C48.2257 48.8125 47.75 49.2882 47.75 49.875C47.75 50.4618 48.2257 50.9375 48.8125 50.9375Z" fill="#CAFF33"/>
<path d="M36.0625 57.8791V53.9181C36.3785 54.0914 36.7155 54.2393 37.0726 54.358C40.7671 55.5863 44.7155 56.25 48.8126 56.25C52.9095 56.25 56.8579 55.5863 60.5523 54.358C60.9094 54.2393 61.2465 54.0914 61.5625 53.9181V57.8791C61.5625 59.936 60.0789 61.7431 57.9881 62.0207C54.9857 62.4193 51.9228 62.625 48.8125 62.625C45.7022 62.625 42.6393 62.4193 39.6369 62.0207C37.5461 61.7431 36.0625 59.936 36.0625 57.8791Z" fill="#CAFF33"/>
<defs>
<linearGradient id="paint0_linear_53_623" x1="49" y1="0" x2="49" y2="98" gradientUnits="userSpaceOnUse">
<stop stop-color="#CAFF33"/>
<stop offset="1" stop-color="#CAFF33" stop-opacity="0"/>
</linearGradient>
<linearGradient id="paint1_linear_53_623" x1="49" y1="-37" x2="49" y2="203" gradientUnits="userSpaceOnUse">
<stop stop-color="#CAFF33"/>
<stop offset="0.467671" stop-color="#CAFF33" stop-opacity="0"/>
</linearGradient>
<linearGradient id="paint2_linear_53_623" x1="49" y1="-116.5" x2="49" y2="153" gradientUnits="userSpaceOnUse">
<stop stop-color="#CAFF33"/>
<stop offset="0.716291" stop-color="#CAFF33" stop-opacity="0"/>
</linearGradient>
</defs>
</svg>
