<svg width="48" height="48" viewBox="0 0 48 48" fill="none" xmlns="http://www.w3.org/2000/svg">
<rect width="48" height="48" rx="24" fill="url(#paint0_linear_108_2456)" fill-opacity="0.1"/>
<g clip-path="url(#clip0_108_2456)">
<path d="M26.154 17.5026C26.1804 17.5334 26.1848 17.5422 26.1892 17.5422C26.6247 17.6038 26.827 17.9293 27.0602 18.2548C27.3285 18.6244 27.6496 18.9631 27.9928 19.271C28.8946 20.0848 29.4489 21.0702 29.6336 22.2712C29.9547 24.3739 28.7494 26.5339 26.7698 27.3741C23.7653 28.6498 20.4088 26.7098 20.0613 23.4633C19.8765 21.7345 20.51 20.3048 21.8297 19.1786C22.2564 18.8135 22.6127 18.3912 22.9075 17.9117C22.9602 17.8237 23.057 17.7533 23.1494 17.7093C23.299 17.639 23.4661 17.5994 23.6553 17.5334C23.5937 17.4586 23.5497 17.4058 23.5013 17.353C23.2066 17.0495 22.9119 16.7372 22.6127 16.4424C22.5071 16.3368 22.4588 16.2269 22.4632 16.0773C22.472 15.4526 22.4676 14.8324 22.4676 14.2077C22.4676 13.957 22.7755 13.5566 23.0262 13.5082C23.3122 13.4511 23.6069 13.4203 23.8928 13.3631C23.9764 13.3455 24.0688 13.2927 24.1172 13.2267C24.5351 12.6636 25.2698 12.6592 25.6833 13.2179C25.7405 13.2927 25.8504 13.3499 25.9428 13.3719C26.2068 13.4291 26.4751 13.4599 26.7434 13.5082C27.0118 13.561 27.2977 13.9086 27.2977 14.1813C27.2977 14.8104 27.2933 15.4438 27.3021 16.0729C27.3065 16.2357 27.2537 16.3456 27.1437 16.46C26.8094 16.7987 26.4883 17.1463 26.154 17.5026ZM24.3064 19.9529C24.2932 20.0057 24.28 20.0365 24.2844 20.0628C24.3416 20.3576 24.2052 20.4852 23.9324 20.5951C23.4133 20.8107 23.1802 21.2462 23.1934 21.8049C23.2066 22.3592 23.5057 22.7023 24.0072 22.8826C24.2272 22.9618 24.4559 23.019 24.6759 23.0938C24.8782 23.1598 25.0806 23.2258 25.2742 23.305C25.4369 23.3709 25.5293 23.4985 25.5117 23.6833C25.4941 23.8724 25.3753 23.9824 25.2082 24.0132C25.0366 24.0484 24.8518 24.0792 24.6891 24.0396C24.3723 23.9648 24.0688 23.8372 23.7345 23.7229C23.5849 23.9208 23.4133 24.1452 23.2066 24.4223C23.5189 24.5587 23.7873 24.6995 24.0732 24.7962C24.236 24.849 24.302 24.9194 24.28 25.0866C24.2668 25.2053 24.2756 25.3285 24.2756 25.4649C24.5263 25.4649 24.7375 25.4649 24.9486 25.4649C25.2522 25.4649 25.2654 25.4649 25.2478 25.1526C25.239 24.959 25.2829 24.8534 25.4941 24.827C25.6041 24.8138 25.7141 24.7522 25.8152 24.6951C26.2815 24.4399 26.4751 24.0308 26.4663 23.5117C26.4575 23.019 26.2111 22.6803 25.7712 22.4823C25.5733 22.3943 25.3621 22.3284 25.151 22.258C24.887 22.17 24.6231 22.0908 24.3591 21.994C24.1964 21.9324 24.1304 21.8005 24.1436 21.6245C24.1568 21.4573 24.258 21.343 24.4119 21.3166C24.5967 21.2858 24.7947 21.2682 24.975 21.299C25.195 21.3386 25.4017 21.4397 25.6349 21.5189C25.78 21.2946 25.9296 21.057 26.1056 20.7799C25.9032 20.6875 25.7317 20.5731 25.5469 20.5423C25.2873 20.4984 25.2082 20.3796 25.239 20.1332C25.2478 20.076 25.1686 19.9617 25.1202 19.9573C24.8562 19.9441 24.5791 19.9529 24.3064 19.9529Z" fill="#CAFF33"/>
<path d="M24.5438 35.1912C23.6068 35.1912 22.6654 35.1648 21.7284 35.2C21.0993 35.222 20.5626 35.0328 20.0567 34.6985C19.3397 34.219 18.6842 33.6735 18.1123 33.0225C17.2677 32.0591 16.4143 31.0957 15.5697 30.1323C14.879 29.3405 15.1914 28.1703 16.1768 27.8492C16.2911 27.8096 16.4231 27.7964 16.5419 27.7964C17.3249 27.792 18.1123 27.7876 18.8954 27.8008C19.0053 27.8008 19.1373 27.858 19.2165 27.9328C19.7532 28.4519 20.2811 28.9841 20.8046 29.5164C20.9101 29.622 21.0069 29.644 21.1565 29.622C21.4732 29.5736 21.7988 29.5296 22.1199 29.5296C23.6024 29.5208 25.0804 29.5252 26.5629 29.5252C27.0688 29.5252 27.4427 29.7848 27.5747 30.2159C27.7771 30.8669 27.302 31.4784 26.5761 31.4828C25.5951 31.4872 24.6097 31.4828 23.6288 31.4828C23.4528 31.4828 23.2768 31.4784 23.1009 31.4828C22.7841 31.4916 22.5774 31.694 22.573 31.9799C22.573 32.2702 22.7797 32.4902 23.0921 32.4902C24.6537 32.4946 26.2154 32.4946 27.7771 32.4902C28.0938 32.4902 28.3226 32.3142 28.5425 32.1031C29.5631 31.1221 30.5837 30.1411 31.6086 29.1645C32.0266 28.7642 32.5808 28.7466 32.9768 29.1029C33.4035 29.49 33.4123 30.1147 32.9812 30.5502C32.5281 31.0121 32.0661 31.4476 31.6086 31.8919C30.5969 32.8729 29.5851 33.8495 28.5777 34.8305C28.3314 35.068 28.0586 35.1912 27.7111 35.1912C26.6553 35.1868 25.5995 35.1912 24.5438 35.1912Z" fill="#CAFF33"/>
<path d="M19.3089 16.6008C19.7356 17.0275 20.1623 17.4542 20.5802 17.8722C20.3207 18.1317 20.0479 18.4044 19.7752 18.6728C19.3705 18.2549 18.9438 17.815 18.5347 17.3927C18.7766 17.1463 19.0494 16.8648 19.3089 16.6008Z" fill="#CAFF33"/>
<path d="M30.4169 16.6008C30.6764 16.8604 30.9447 17.1375 31.1955 17.3883C30.7776 17.8062 30.3421 18.2417 29.9198 18.6596C29.6646 18.4044 29.3963 18.1273 29.1279 17.859C29.5458 17.4498 29.9769 17.0275 30.4169 16.6008Z" fill="#CAFF33"/>
<path d="M31.4283 23.5337C31.4283 23.1598 31.4239 22.8166 31.4327 22.4735C31.4327 22.4295 31.5163 22.3503 31.5603 22.3503C32.097 22.3416 32.6293 22.3416 33.166 22.3503C33.21 22.3503 33.2935 22.4163 33.2935 22.4515C33.3023 22.8079 33.2979 23.1642 33.2979 23.5337C32.6689 23.5337 32.0618 23.5337 31.4283 23.5337Z" fill="#CAFF33"/>
<path d="M18.2842 23.5469C17.6771 23.5469 17.1096 23.5513 16.5377 23.5425C16.4938 23.5425 16.4234 23.4589 16.419 23.4105C16.4102 23.1026 16.4058 22.7947 16.419 22.4867C16.419 22.4383 16.507 22.3503 16.5553 22.3503C17.0832 22.3416 17.6111 22.3416 18.139 22.3503C18.1874 22.3503 18.2754 22.4207 18.2754 22.4647C18.2886 22.8079 18.2842 23.1598 18.2842 23.5469Z" fill="#CAFF33"/>
</g>
<rect x="0.5" y="0.5" width="47" height="47" rx="23.5" stroke="url(#paint1_linear_108_2456)" stroke-opacity="0.2"/>
<defs>
<linearGradient id="paint0_linear_108_2456" x1="24" y1="-31.7838" x2="24" y2="123.892" gradientUnits="userSpaceOnUse">
<stop stop-color="#CAFF33"/>
<stop offset="0.467671" stop-color="#CAFF33" stop-opacity="0"/>
</linearGradient>
<linearGradient id="paint1_linear_108_2456" x1="24" y1="-83.3514" x2="24" y2="91.4595" gradientUnits="userSpaceOnUse">
<stop stop-color="#CAFF33"/>
<stop offset="0.716291" stop-color="#CAFF33" stop-opacity="0"/>
</linearGradient>
<clipPath id="clip0_108_2456">
<rect width="18.1021" height="22.4" fill="white" transform="translate(15.2002 12.8)"/>
</clipPath>
</defs>
</svg>
