<svg width="48" height="48" viewBox="0 0 48 48" fill="none" xmlns="http://www.w3.org/2000/svg">
<rect width="48" height="48" rx="24" fill="url(#paint0_linear_108_2469)" fill-opacity="0.1"/>
<g clip-path="url(#clip0_108_2469)">
<path d="M31.7262 23.2147C31.7262 23.813 31.7343 24.4073 31.7222 25.0056C31.7142 25.3284 31.8065 25.6118 31.9752 25.8794C32.4088 26.58 32.9829 27.1665 33.5651 27.7451C33.7819 27.9616 34.0067 28.1663 34.2355 28.367C34.348 28.4654 34.4001 28.5677 34.4001 28.7212C34.3921 29.3786 34.3921 30.0319 34.3961 30.6893C34.4001 31.2364 34.1593 31.6457 33.6574 31.874C33.1435 32.1062 32.6617 32.0078 32.2401 31.6497C31.3689 30.9018 30.5017 30.15 29.6345 29.4022C29.0443 28.8905 28.4581 28.3709 27.8559 27.875C27.6431 27.6979 27.3902 27.568 27.1453 27.4342C26.7839 27.2374 26.3945 27.1311 25.9729 27.1468C25.6678 27.1586 25.3546 27.1626 25.0495 27.139C24.6039 27.1035 24.2867 26.8005 24.2265 26.3832C24.1703 26.0172 24.3911 25.6236 24.7604 25.4819C24.901 25.4268 25.0575 25.4032 25.2101 25.4032C26.3664 25.3953 27.5227 25.3992 28.683 25.3992C29.1166 25.3992 29.2732 25.2457 29.2732 24.8167C29.2732 23.9508 29.2691 23.0848 29.2732 22.2189C29.2772 21.8883 29.1607 21.6285 28.9078 21.4041C27.4504 20.121 26.001 18.83 24.5477 17.539C24.1582 17.1926 24.114 16.6809 24.4393 16.307C24.7604 15.9331 25.2864 15.8976 25.6999 16.2125C27.5588 17.6295 29.4137 19.0465 31.2806 20.4556C31.5897 20.6878 31.7343 20.9712 31.7303 21.3451C31.7222 21.967 31.7262 22.5889 31.7262 23.2147Z" fill="#CAFF33"/>
<path d="M12.804 29.7643C12.804 29.41 12.808 29.0558 12.8 28.7015C12.796 28.5638 12.8522 28.4732 12.9445 28.3788C13.5508 27.7687 14.149 27.1507 14.7432 26.5288C14.8677 26.3989 14.96 26.2454 15.0684 26.1037C15.3535 25.7219 15.486 25.3047 15.4739 24.8167C15.4498 23.6909 15.4779 22.5613 15.4619 21.4317C15.4538 20.9869 15.6144 20.672 15.9798 20.3965C17.8347 19.011 19.6694 17.6019 21.5123 16.1967C21.8977 15.9015 22.4277 15.9488 22.7408 16.303C23.062 16.6651 23.0339 17.1847 22.6605 17.5232C22.0944 18.0349 21.5203 18.5347 20.9502 19.0425C20.0468 19.8415 19.1435 20.6445 18.2402 21.4435C18.0274 21.6324 17.923 21.8607 17.923 22.1362C17.923 23.0533 17.919 23.9704 17.923 24.8914C17.923 25.2299 18.0996 25.3953 18.4489 25.3953C19.6413 25.3992 20.8297 25.3953 22.0222 25.3992C22.5842 25.3992 22.9777 25.7849 22.9657 26.3045C22.9576 26.702 22.6645 27.0602 22.259 27.1192C22.0181 27.1547 21.7652 27.1704 21.5203 27.1468C20.6973 27.0681 20.0027 27.3633 19.3884 27.8435C18.7621 28.3315 18.1759 28.8747 17.5777 29.3903C16.6984 30.1461 15.8232 30.9096 14.9399 31.6614C14.2253 32.2715 13.1694 32.0039 12.8642 31.134C12.8241 31.0238 12.8121 30.9018 12.808 30.7876C12.8 30.4491 12.804 30.1067 12.804 29.7643Z" fill="#CAFF33"/>
<path d="M24.1699 24.0295C24.1699 24.2184 24.1699 24.3955 24.1699 24.5884C23.8326 24.5884 23.5115 24.5884 23.1622 24.5884C23.1622 24.4349 23.1581 24.2853 23.1622 24.1358C23.1662 24.0256 23.1341 23.9783 23.0176 23.9508C22.6844 23.872 22.3752 23.7382 22.0862 23.5099C22.2709 23.2698 22.4475 23.0415 22.6081 22.829C22.9132 22.9431 23.1903 23.077 23.4834 23.1439C23.6961 23.1911 23.933 23.1596 24.1538 23.1242C24.3225 23.0966 24.4309 22.9668 24.4429 22.7896C24.459 22.6086 24.3626 22.4826 24.202 22.4196C23.929 22.3173 23.6439 22.2386 23.3669 22.1481C23.1662 22.0811 22.9574 22.0221 22.7607 21.9395C22.299 21.7466 22.0541 21.4042 22.042 20.9003C22.03 20.3729 22.2307 19.9478 22.7125 19.7195C23.0257 19.57 23.2947 19.4597 23.1381 19.0228C23.4793 19.0228 23.7764 19.0189 24.0776 19.0307C24.1097 19.0307 24.1659 19.1291 24.1659 19.1842C24.186 19.5188 24.186 19.5109 24.5031 19.6211C24.6878 19.6841 24.8645 19.7746 25.0652 19.8652C24.8966 20.121 24.7601 20.3454 24.6075 20.5579C24.5834 20.5894 24.4871 20.5855 24.4309 20.5697C24.1659 20.5028 23.9089 20.4162 23.6439 20.365C23.5396 20.3454 23.4191 20.3768 23.3107 20.4044C23.1501 20.4477 23.0417 20.554 23.0297 20.7272C23.0176 20.8964 23.0939 21.0263 23.2505 21.0893C23.4552 21.1719 23.664 21.2349 23.8728 21.3018C24.1016 21.3766 24.3385 21.4317 24.5593 21.5144C25.1977 21.7584 25.4547 22.1441 25.4225 22.7778C25.3904 23.3604 25.0251 23.7933 24.4228 23.9626C24.3506 23.9862 24.2743 24.0059 24.1699 24.0295Z" fill="#CAFF33"/>
</g>
<rect x="0.5" y="0.5" width="47" height="47" rx="23.5" stroke="url(#paint1_linear_108_2469)" stroke-opacity="0.2"/>
<defs>
<linearGradient id="paint0_linear_108_2469" x1="24" y1="-31.7838" x2="24" y2="123.892" gradientUnits="userSpaceOnUse">
<stop stop-color="#CAFF33"/>
<stop offset="0.467671" stop-color="#CAFF33" stop-opacity="0"/>
</linearGradient>
<linearGradient id="paint1_linear_108_2469" x1="24" y1="-83.3514" x2="24" y2="91.4595" gradientUnits="userSpaceOnUse">
<stop stop-color="#CAFF33"/>
<stop offset="0.716291" stop-color="#CAFF33" stop-opacity="0"/>
</linearGradient>
<clipPath id="clip0_108_2469">
<rect width="21.6" height="16" fill="white" transform="translate(12.7998 16)"/>
</clipPath>
</defs>
</svg>
