<svg width="48" height="48" viewBox="0 0 48 48" fill="none" xmlns="http://www.w3.org/2000/svg">
<rect width="48" height="48" rx="24" fill="url(#paint0_linear_108_2480)" fill-opacity="0.1"/>
<path d="M23.5841 14.376C23.836 14.208 24.1642 14.208 24.4161 14.376L33.4161 20.376C33.7608 20.6057 33.8539 21.0714 33.6241 21.416C33.3944 21.7607 32.9287 21.8538 32.5841 21.624L24.0001 15.9014L15.4161 21.624C15.0715 21.8538 14.6058 21.7607 14.376 21.416C14.1463 21.0714 14.2394 20.6057 14.5841 20.376L23.5841 14.376Z" fill="#CAFF33"/>
<path fill-rule="evenodd" clip-rule="evenodd" d="M32.25 22.3325V32.25H33C33.4142 32.25 33.75 32.5858 33.75 33C33.75 33.4142 33.4142 33.75 33 33.75H15C14.5858 33.75 14.25 33.4142 14.25 33C14.25 32.5858 14.5858 32.25 15 32.25H15.75V22.3325C15.75 21.9632 16.0189 21.6488 16.3837 21.5916C18.8658 21.2021 21.4095 21 24 21C26.5905 21 29.1342 21.2021 31.6163 21.5916C31.9811 21.6488 32.25 21.9632 32.25 22.3325ZM24.75 24.75C24.75 24.3358 24.4142 24 24 24C23.5858 24 23.25 24.3358 23.25 24.75V31.5C23.25 31.9142 23.5858 32.25 24 32.25C24.4142 32.25 24.75 31.9142 24.75 31.5V24.75ZM27.75 24C28.1642 24 28.5 24.3358 28.5 24.75V31.5C28.5 31.9142 28.1642 32.25 27.75 32.25C27.3358 32.25 27 31.9142 27 31.5V24.75C27 24.3358 27.3358 24 27.75 24ZM21 24.75C21 24.3358 20.6642 24 20.25 24C19.8358 24 19.5 24.3358 19.5 24.75V31.5C19.5 31.9142 19.8358 32.25 20.25 32.25C20.6642 32.25 21 31.9142 21 31.5V24.75Z" fill="#CAFF33"/>
<path d="M24 19.875C24.6213 19.875 25.125 19.3713 25.125 18.75C25.125 18.1287 24.6213 17.625 24 17.625C23.3787 17.625 22.875 18.1287 22.875 18.75C22.875 19.3713 23.3787 19.875 24 19.875Z" fill="#CAFF33"/>
<rect x="0.5" y="0.5" width="47" height="47" rx="23.5" stroke="url(#paint1_linear_108_2480)" stroke-opacity="0.2"/>
<defs>
<linearGradient id="paint0_linear_108_2480" x1="24" y1="-31.7838" x2="24" y2="123.892" gradientUnits="userSpaceOnUse">
<stop stop-color="#CAFF33"/>
<stop offset="0.467671" stop-color="#CAFF33" stop-opacity="0"/>
</linearGradient>
<linearGradient id="paint1_linear_108_2480" x1="24" y1="-83.3514" x2="24" y2="91.4595" gradientUnits="userSpaceOnUse">
<stop stop-color="#CAFF33"/>
<stop offset="0.716291" stop-color="#CAFF33" stop-opacity="0"/>
</linearGradient>
</defs>
</svg>
