<svg width="48" height="48" viewBox="0 0 48 48" fill="none" xmlns="http://www.w3.org/2000/svg">
<rect width="48" height="48" rx="24" fill="url(#paint0_linear_108_2532)" fill-opacity="0.1"/>
<path fill-rule="evenodd" clip-rule="evenodd" d="M15 14.25C14.5858 14.25 14.25 14.5858 14.25 15C14.25 15.4142 14.5858 15.75 15 15.75V32.25H14.25C13.8358 32.25 13.5 32.5858 13.5 33C13.5 33.4142 13.8358 33.75 14.25 33.75H27V15.75C27.4142 15.75 27.75 15.4142 27.75 15C27.75 14.5858 27.4142 14.25 27 14.25H15ZM18.75 31.5V29.25C18.75 28.8358 19.0858 28.5 19.5 28.5H22.5C22.9142 28.5 23.25 28.8358 23.25 29.25V31.5C23.25 31.9142 22.9142 32.25 22.5 32.25H19.5C19.0858 32.25 18.75 31.9142 18.75 31.5ZM18 18.75C18 18.3358 18.3358 18 18.75 18H19.5C19.9142 18 20.25 18.3358 20.25 18.75C20.25 19.1642 19.9142 19.5 19.5 19.5H18.75C18.3358 19.5 18 19.1642 18 18.75ZM18.75 21C18.3358 21 18 21.3358 18 21.75C18 22.1642 18.3358 22.5 18.75 22.5H19.5C19.9142 22.5 20.25 22.1642 20.25 21.75C20.25 21.3358 19.9142 21 19.5 21H18.75ZM18 24.75C18 24.3358 18.3358 24 18.75 24H19.5C19.9142 24 20.25 24.3358 20.25 24.75C20.25 25.1642 19.9142 25.5 19.5 25.5H18.75C18.3358 25.5 18 25.1642 18 24.75ZM22.5 18C22.0858 18 21.75 18.3358 21.75 18.75C21.75 19.1642 22.0858 19.5 22.5 19.5H23.25C23.6642 19.5 24 19.1642 24 18.75C24 18.3358 23.6642 18 23.25 18H22.5ZM21.75 21.75C21.75 21.3358 22.0858 21 22.5 21H23.25C23.6642 21 24 21.3358 24 21.75C24 22.1642 23.6642 22.5 23.25 22.5H22.5C22.0858 22.5 21.75 22.1642 21.75 21.75ZM22.5 24C22.0858 24 21.75 24.3358 21.75 24.75C21.75 25.1642 22.0858 25.5 22.5 25.5H23.25C23.6642 25.5 24 25.1642 24 24.75C24 24.3358 23.6642 24 23.25 24H22.5Z" fill="#CAFF33"/>
<path fill-rule="evenodd" clip-rule="evenodd" d="M28.5 18.75V33.75H33.75C34.1642 33.75 34.5 33.4142 34.5 33C34.5 32.5858 34.1642 32.25 33.75 32.25H33V20.25C33.4142 20.25 33.75 19.9142 33.75 19.5C33.75 19.0858 33.4142 18.75 33 18.75H28.5ZM30 23.25C30 22.8358 30.3358 22.5 30.75 22.5H30.7575C31.1717 22.5 31.5075 22.8358 31.5075 23.25V23.2575C31.5075 23.6717 31.1717 24.0075 30.7575 24.0075H30.75C30.3358 24.0075 30 23.6717 30 23.2575V23.25ZM30.75 25.5C30.3358 25.5 30 25.8358 30 26.25V26.2575C30 26.6717 30.3358 27.0075 30.75 27.0075H30.7575C31.1717 27.0075 31.5075 26.6717 31.5075 26.2575V26.25C31.5075 25.8358 31.1717 25.5 30.7575 25.5H30.75ZM30 29.25C30 28.8358 30.3358 28.5 30.75 28.5H30.7575C31.1717 28.5 31.5075 28.8358 31.5075 29.25V29.2575C31.5075 29.6717 31.1717 30.0075 30.7575 30.0075H30.75C30.3358 30.0075 30 29.6717 30 29.2575V29.25Z" fill="#CAFF33"/>
<rect x="0.5" y="0.5" width="47" height="47" rx="23.5" stroke="url(#paint1_linear_108_2532)" stroke-opacity="0.2"/>
<defs>
<linearGradient id="paint0_linear_108_2532" x1="24" y1="-31.7838" x2="24" y2="123.892" gradientUnits="userSpaceOnUse">
<stop stop-color="#CAFF33"/>
<stop offset="0.467671" stop-color="#CAFF33" stop-opacity="0"/>
</linearGradient>
<linearGradient id="paint1_linear_108_2532" x1="24" y1="-83.3514" x2="24" y2="91.4595" gradientUnits="userSpaceOnUse">
<stop stop-color="#CAFF33"/>
<stop offset="0.716291" stop-color="#CAFF33" stop-opacity="0"/>
</linearGradient>
</defs>
</svg>
