<svg width="48" height="48" viewBox="0 0 48 48" fill="none" xmlns="http://www.w3.org/2000/svg">
<rect width="48" height="48" rx="24" fill="url(#paint0_linear_108_2538)" fill-opacity="0.1"/>
<path d="M24 19.5C22.7574 19.5 21.75 20.5074 21.75 21.75C21.75 22.9926 22.7574 24 24 24C25.2426 24 26.25 22.9926 26.25 21.75C26.25 20.5074 25.2426 19.5 24 19.5Z" fill="#CAFF33"/>
<path fill-rule="evenodd" clip-rule="evenodd" d="M13.5 16.875C13.5 15.8395 14.3395 15 15.375 15H32.625C33.6605 15 34.5 15.8395 34.5 16.875V26.625C34.5 27.6605 33.6605 28.5 32.625 28.5H15.375C14.3395 28.5 13.5 27.6605 13.5 26.625V16.875ZM20.25 21.75C20.25 19.6789 21.9289 18 24 18C26.0711 18 27.75 19.6789 27.75 21.75C27.75 23.8211 26.0711 25.5 24 25.5C21.9289 25.5 20.25 23.8211 20.25 21.75ZM30.75 21C30.3358 21 30 21.3358 30 21.75V21.7575C30 22.1717 30.3358 22.5075 30.75 22.5075H30.7575C31.1717 22.5075 31.5075 22.1717 31.5075 21.7575V21.75C31.5075 21.3358 31.1717 21 30.7575 21H30.75ZM16.5 21.75C16.5 21.3358 16.8358 21 17.25 21H17.2575C17.6717 21 18.0075 21.3358 18.0075 21.75V21.7575C18.0075 22.1717 17.6717 22.5075 17.2575 22.5075H17.25C16.8358 22.5075 16.5 22.1717 16.5 21.7575V21.75Z" fill="#CAFF33"/>
<path d="M14.25 30C13.8358 30 13.5 30.3358 13.5 30.75C13.5 31.1642 13.8358 31.5 14.25 31.5C19.65 31.5 24.8802 32.2222 29.8498 33.5749C31.0404 33.899 32.25 33.0168 32.25 31.7551V30.75C32.25 30.3358 31.9142 30 31.5 30H14.25Z" fill="#CAFF33"/>
<rect x="0.5" y="0.5" width="47" height="47" rx="23.5" stroke="url(#paint1_linear_108_2538)" stroke-opacity="0.2"/>
<defs>
<linearGradient id="paint0_linear_108_2538" x1="24" y1="-31.7838" x2="24" y2="123.892" gradientUnits="userSpaceOnUse">
<stop stop-color="#CAFF33"/>
<stop offset="0.467671" stop-color="#CAFF33" stop-opacity="0"/>
</linearGradient>
<linearGradient id="paint1_linear_108_2538" x1="24" y1="-83.3514" x2="24" y2="91.4595" gradientUnits="userSpaceOnUse">
<stop stop-color="#CAFF33"/>
<stop offset="0.716291" stop-color="#CAFF33" stop-opacity="0"/>
</linearGradient>
</defs>
</svg>
