<svg width="48" height="48" viewBox="0 0 48 48" fill="none" xmlns="http://www.w3.org/2000/svg">
<rect width="48" height="48" rx="24" fill="url(#paint0_linear_108_2545)" fill-opacity="0.1"/>
<path fill-rule="evenodd" clip-rule="evenodd" d="M14.25 14.25C13.8358 14.25 13.5 14.5858 13.5 15C13.5 15.4142 13.8358 15.75 14.25 15.75H15V26.25C15 27.9069 16.3431 29.25 18 29.25H19.2094L18.0385 32.7628C17.9075 33.1558 18.1199 33.5805 18.5128 33.7115C18.9058 33.8425 19.3305 33.6301 19.4615 33.2372L19.7906 32.25H28.2094L28.5385 33.2372C28.6695 33.6301 29.0942 33.8425 29.4872 33.7115C29.8801 33.5805 30.0925 33.1558 29.9615 32.7628L28.7906 29.25H30C31.6569 29.25 33 27.9069 33 26.25V15.75H33.75C34.1642 15.75 34.5 15.4142 34.5 15C34.5 14.5858 34.1642 14.25 33.75 14.25H14.25ZM20.2906 30.75L20.7906 29.25H27.2094L27.7094 30.75H20.2906ZM27.75 18.75C27.75 18.3358 27.4142 18 27 18C26.5858 18 26.25 18.3358 26.25 18.75V24.75C26.25 25.1642 26.5858 25.5 27 25.5C27.4142 25.5 27.75 25.1642 27.75 24.75V18.75ZM24.75 21C24.75 20.5858 24.4142 20.25 24 20.25C23.5858 20.25 23.25 20.5858 23.25 21V24.75C23.25 25.1642 23.5858 25.5 24 25.5C24.4142 25.5 24.75 25.1642 24.75 24.75V21ZM21.75 23.25C21.75 22.8358 21.4142 22.5 21 22.5C20.5858 22.5 20.25 22.8358 20.25 23.25V24.75C20.25 25.1642 20.5858 25.5 21 25.5C21.4142 25.5 21.75 25.1642 21.75 24.75V23.25Z" fill="#CAFF33"/>
<rect x="0.5" y="0.5" width="47" height="47" rx="23.5" stroke="url(#paint1_linear_108_2545)" stroke-opacity="0.2"/>
<defs>
<linearGradient id="paint0_linear_108_2545" x1="24" y1="-31.7838" x2="24" y2="123.892" gradientUnits="userSpaceOnUse">
<stop stop-color="#CAFF33"/>
<stop offset="0.467671" stop-color="#CAFF33" stop-opacity="0"/>
</linearGradient>
<linearGradient id="paint1_linear_108_2545" x1="24" y1="-83.3514" x2="24" y2="91.4595" gradientUnits="userSpaceOnUse">
<stop stop-color="#CAFF33"/>
<stop offset="0.716291" stop-color="#CAFF33" stop-opacity="0"/>
</linearGradient>
</defs>
</svg>
