<svg width="48" height="48" viewBox="0 0 48 48" fill="none" xmlns="http://www.w3.org/2000/svg">
<rect width="48" height="48" rx="24" fill="url(#paint0_linear_108_2551)" fill-opacity="0.1"/>
<path d="M22.4636 20.7463C22.6908 20.5658 22.9607 20.4345 23.25 20.3525V23.1474C22.9552 23.0637 22.686 22.9304 22.4636 22.7537C22.0699 22.441 21.9175 22.073 21.9175 21.75C21.9175 21.427 22.0699 21.059 22.4636 20.7463Z" fill="#CAFF33"/>
<path d="M24.75 27.6616V24.8383C25.0972 24.9228 25.4138 25.0658 25.6713 25.259C26.0978 25.5788 26.25 25.9448 26.25 26.25C26.25 26.5551 26.0978 26.9211 25.6713 27.241C25.4138 27.4342 25.0972 27.5772 24.75 27.6616Z" fill="#CAFF33"/>
<path fill-rule="evenodd" clip-rule="evenodd" d="M24 14.25C18.6152 14.25 14.25 18.6152 14.25 24C14.25 29.3848 18.6152 33.75 24 33.75C29.3848 33.75 33.75 29.3848 33.75 24C33.75 18.6152 29.3848 14.25 24 14.25ZM24.75 18C24.75 17.5858 24.4142 17.25 24 17.25C23.5858 17.25 23.25 17.5858 23.25 18V18.8156C22.6231 18.9267 22.0253 19.1787 21.5306 19.5718C20.8182 20.1377 20.4175 20.9213 20.4175 21.75C20.4175 22.5787 20.8182 23.3623 21.5306 23.9282C22.033 24.3274 22.6327 24.575 23.25 24.6843V27.6616C22.9028 27.5771 22.5864 27.4341 22.3289 27.241L21.45 26.5818C21.1186 26.3333 20.6485 26.4004 20.4 26.7318C20.1515 27.0631 20.2186 27.5332 20.55 27.7818L21.4289 28.441C21.9621 28.8409 22.5979 29.0856 23.25 29.1903V30C23.25 30.4142 23.5858 30.75 24 30.75C24.4142 30.75 24.75 30.4142 24.75 30V29.1904C25.4021 29.0856 26.0381 28.8409 26.5714 28.441C27.3164 27.8821 27.75 27.0965 27.75 26.25C27.75 25.4034 27.3164 24.6178 26.5714 24.059C26.0381 23.659 25.4021 23.4143 24.75 23.3096V20.3526C25.0392 20.4346 25.309 20.5658 25.5361 20.7463L25.951 21.0759C26.2753 21.3335 26.7471 21.2794 27.0048 20.9551C27.2624 20.6308 27.2084 20.159 26.884 19.9013L26.4691 19.5718C25.9745 19.1788 25.3768 18.9268 24.75 18.8157V18Z" fill="#CAFF33"/>
<rect x="0.5" y="0.5" width="47" height="47" rx="23.5" stroke="url(#paint1_linear_108_2551)" stroke-opacity="0.2"/>
<defs>
<linearGradient id="paint0_linear_108_2551" x1="24" y1="-31.7838" x2="24" y2="123.892" gradientUnits="userSpaceOnUse">
<stop stop-color="#CAFF33"/>
<stop offset="0.467671" stop-color="#CAFF33" stop-opacity="0"/>
</linearGradient>
<linearGradient id="paint1_linear_108_2551" x1="24" y1="-83.3514" x2="24" y2="91.4595" gradientUnits="userSpaceOnUse">
<stop stop-color="#CAFF33"/>
<stop offset="0.716291" stop-color="#CAFF33" stop-opacity="0"/>
</linearGradient>
</defs>
</svg>
