<svg width="25" height="23" viewBox="0 0 25 23" fill="none" xmlns="http://www.w3.org/2000/svg">
<path d="M12.333 5.75C10.8833 5.75 9.70801 6.92525 9.70801 8.375C9.70801 9.82475 10.8833 11 12.333 11C13.7828 11 14.958 9.82475 14.958 8.375C14.958 6.92525 13.7828 5.75 12.333 5.75Z" fill="#CAFF33"/>
<path fill-rule="evenodd" clip-rule="evenodd" d="M0.0830078 2.6875C0.0830078 1.47938 1.06238 0.5 2.27051 0.5H22.3955C23.6036 0.5 24.583 1.47938 24.583 2.6875V14.0625C24.583 15.2706 23.6036 16.25 22.3955 16.25H2.27051C1.06238 16.25 0.0830078 15.2706 0.0830078 14.0625V2.6875ZM7.95801 8.375C7.95801 5.95875 9.91676 4 12.333 4C14.7493 4 16.708 5.95875 16.708 8.375C16.708 10.7912 14.7493 12.75 12.333 12.75C9.91676 12.75 7.95801 10.7912 7.95801 8.375ZM20.208 7.5C19.7248 7.5 19.333 7.89175 19.333 8.375V8.38375C19.333 8.867 19.7248 9.25875 20.208 9.25875H20.2168C20.7 9.25875 21.0918 8.867 21.0918 8.38375V8.375C21.0918 7.89175 20.7 7.5 20.2168 7.5H20.208ZM3.58301 8.375C3.58301 7.89175 3.97476 7.5 4.45801 7.5H4.46676C4.95001 7.5 5.34176 7.89175 5.34176 8.375V8.38375C5.34176 8.867 4.95001 9.25875 4.46676 9.25875H4.45801C3.97476 9.25875 3.58301 8.867 3.58301 8.38375V8.375Z" fill="#CAFF33"/>
<path d="M0.958008 18C0.474759 18 0.0830078 18.3918 0.0830078 18.875C0.0830078 19.3582 0.474759 19.75 0.958008 19.75C7.25806 19.75 13.3599 20.5926 19.1577 22.1707C20.5468 22.5488 21.958 21.5196 21.958 20.0476V18.875C21.958 18.3918 21.5663 18 21.083 18H0.958008Z" fill="#CAFF33"/>
</svg>
